# xmcd
#
# Track frame offsets:
#	150
#	14400
#	64425
#	131652
#	175527
#	228787
#
# Disc length: 3494 seconds
#
# Revision: 1
# Processed by: cddbd v1.5.1PL0 Copyright (c) Steve Scherf et al.
# Submitted via: CDex 1.50Beta5
#
DISCID=470da406
DTITLE=Wagner - The collection of Classical Music
DYEAR=1900
DGENRE=
TTITLE0=ウイーンフィル〜ショルテイ/ワルキューレの騎行
TTITLE1=シカゴ交響楽団〜ショルテイ/さまよえるオランダ人
TTITLE2=シカゴ交響楽団〜ショルテイ/タンホイザー序曲
TTITLE3=シカゴ交響楽団〜ショルテイ/ニュルンベルグのマイスタージンガー
TTITLE4=シカゴ交響楽団〜ショルテイ/トリスタンとイゾルデ前奏曲
TTITLE5=シカゴ交響楽団〜ショルテイ/愛の死
EXTD=
EXTT0=
EXTT1=
EXTT2=
EXTT3=
EXTT4=
EXTT5=
PLAYORDER=
